<?xml version="1.0" encoding="UTF-8"?>
<!-- Generator: Adobe Illustrator 22.0.0, SVG Export Plug-In . SVG Version: 6.00 Build 0)  -->
<svg version="1.1" id="Layer_1" xmlns="http://www.w3.org/2000/svg" xmlns:xlink="http://www.w3.org/1999/xlink" x="0px" y="0px" viewBox="0 0 456.1 18" style="enable-background:new 0 0 456.1 18;" xml:space="preserve">
<style type="text/css">
	.st0{fill:#FFFFFF;}
</style>
<g>
	<g>
		<g>
			<path class="st0" d="M9.9,17l-2.7-5.6H5.4V17H0.9V0.5h7.4c1,0,1.8,0.1,2.6,0.3c0.8,0.2,1.5,0.5,2,0.9c0.6,0.4,1,1,1.3,1.7     c0.3,0.7,0.5,1.5,0.5,2.5c0,1.2-0.3,2.3-0.8,3c-0.5,0.8-1.3,1.4-2.2,1.8L15,17H9.9z M9.7,4.8C9.4,4.4,8.9,4.3,8.2,4.3H5.4v3.6     h2.7c0.8,0,1.3-0.2,1.6-0.5C10,7.1,10.2,6.6,10.2,6C10.2,5.5,10,5.1,9.7,4.8z"/>
		</g>
		<g>
			<path class="st0" d="M17.8,17V0.5h12.6v3.8h-8.1v2.2h4.9v3.8h-4.9v2.8h8.3V17H17.8z"/>
		</g>
		<g>
			<path class="st0" d="M47.1,12.6c-0.4,1.1-0.9,1.9-1.7,2.6c-0.8,0.7-1.7,1.1-2.8,1.4c-1.1,0.3-2.4,0.4-3.9,0.4h-5.3V0.5h5.8     c1.3,0,2.5,0.1,3.5,0.4c1.1,0.3,1.9,0.7,2.7,1.4c0.7,0.6,1.3,1.5,1.7,2.5c0.4,1,0.6,2.3,0.6,3.9C47.7,10.2,47.5,11.5,47.1,12.6z      M42.8,6.8c-0.1-0.6-0.3-1-0.6-1.3c-0.3-0.3-0.7-0.6-1.2-0.8c-0.5-0.2-1.1-0.2-1.8-0.2h-1.1v8.7h1c0.7,0,1.3-0.1,1.8-0.2     c0.5-0.2,0.9-0.4,1.2-0.7c0.3-0.3,0.6-0.8,0.7-1.3c0.1-0.6,0.2-1.2,0.2-2.1C43,8,42.9,7.3,42.8,6.8z"/>
		</g>
		<g>
			<path class="st0" d="M67,17v-6.5h-5.1V17h-4.7V0.5h4.7v6H67v-6h4.7V17H67z"/>
		</g>
		<g>
			<path class="st0" d="M85.7,17l-0.9-2.9h-4.9L78.9,17h-4.9l6-16.5h4.6l6,16.5H85.7z M83.4,9.4c-0.1-0.5-0.3-1-0.4-1.4     c-0.1-0.4-0.2-0.7-0.3-1.1c-0.1-0.3-0.2-0.6-0.2-0.9c-0.1-0.3-0.1-0.5-0.2-0.8c0,0.3-0.1,0.6-0.2,0.8C82.1,6.4,82,6.7,81.9,7     c-0.1,0.3-0.2,0.7-0.3,1.1c-0.1,0.4-0.2,0.8-0.4,1.4l-0.3,1.1h2.7L83.4,9.4z"/>
		</g>
		<g>
			<path class="st0" d="M99.2,4.5V17h-4.6V4.5H90v-4h13.8v4H99.2z"/>
		</g>
	</g>
	<g>
		<path class="st0" d="M109.2,9.4c-0.1,0.2-0.2,0.4-0.3,0.5c-0.2,0.1-0.3,0.3-0.5,0.4c-0.2,0.1-0.4,0.1-0.7,0.1    c-0.2,0-0.5,0-0.7-0.1c-0.2-0.1-0.4-0.2-0.5-0.4c-0.1-0.1-0.3-0.3-0.3-0.5C106.1,9.2,106,9,106,8.8c0-0.2,0-0.5,0.1-0.7    c0.1-0.2,0.2-0.4,0.3-0.5c0.2-0.2,0.3-0.3,0.5-0.4c0.2-0.1,0.4-0.1,0.7-0.1c0.2,0,0.5,0,0.7,0.1c0.2,0.1,0.4,0.2,0.5,0.4    c0.1,0.1,0.3,0.3,0.3,0.5c0.1,0.2,0.1,0.4,0.1,0.7C109.3,9,109.3,9.2,109.2,9.4z M108.9,8.2c-0.1-0.2-0.2-0.3-0.3-0.4    c-0.1-0.1-0.3-0.2-0.4-0.3c-0.2-0.1-0.4-0.1-0.5-0.1c-0.2,0-0.4,0-0.6,0.1c-0.2,0.1-0.3,0.2-0.4,0.3c-0.1,0.1-0.2,0.3-0.3,0.4    c-0.1,0.2-0.1,0.3-0.1,0.5c0,0.2,0,0.4,0.1,0.5c0.1,0.2,0.2,0.3,0.3,0.4c0.1,0.1,0.3,0.2,0.4,0.3c0.2,0.1,0.4,0.1,0.6,0.1    c0.2,0,0.4,0,0.5-0.1c0.2-0.1,0.3-0.2,0.4-0.3c0.1-0.1,0.2-0.3,0.3-0.4c0.1-0.2,0.1-0.4,0.1-0.5C109.1,8.6,109,8.4,108.9,8.2z     M108.3,8.7c-0.1,0.1-0.2,0.2-0.3,0.2l0.4,0.7H108l-0.4-0.7h-0.3v0.7H107V7.8h0.8c0.1,0,0.2,0,0.2,0c0.1,0,0.1,0.1,0.2,0.1    c0.1,0,0.1,0.1,0.1,0.2c0,0.1,0,0.1,0,0.2C108.4,8.5,108.4,8.6,108.3,8.7z M108,8.2c-0.1,0-0.1-0.1-0.2-0.1h-0.5v0.5h0.5    c0.1,0,0.2,0,0.2-0.1c0.1,0,0.1-0.1,0.1-0.2C108.1,8.3,108.1,8.2,108,8.2z"/>
	</g>
	<g>
		<path class="st0" d="M124.5,5.3c-0.3-0.6-0.7-1-1.2-1.3c-0.5-0.3-1.1-0.5-1.9-0.5c-0.6,0-1.2,0.1-1.7,0.4s-0.9,0.6-1.2,1.1    c-0.3,0.5-0.6,1-0.8,1.7c-0.2,0.6-0.3,1.4-0.3,2.1c0,0.7,0.1,1.4,0.3,2.1c0.2,0.6,0.4,1.2,0.8,1.7c0.3,0.5,0.8,0.8,1.2,1.1    c0.5,0.3,1,0.4,1.7,0.4c0.8,0,1.4-0.2,1.9-0.5c0.5-0.3,0.9-0.9,1.4-1.6l2.8,1.7c-0.6,1.2-1.4,2.1-2.4,2.8c-1,0.7-2.3,1-3.8,1    c-1.1,0-2.1-0.2-3-0.6c-0.9-0.4-1.7-1-2.3-1.7c-0.6-0.7-1.1-1.6-1.5-2.7c-0.3-1.1-0.5-2.2-0.5-3.6c0-1.3,0.2-2.4,0.5-3.5    c0.4-1.1,0.9-2,1.5-2.7c0.7-0.8,1.4-1.3,2.3-1.8s1.9-0.6,3-0.6c0.8,0,1.5,0.1,2.1,0.3c0.6,0.2,1.2,0.4,1.7,0.8    c0.5,0.3,0.9,0.7,1.3,1.2s0.7,0.9,1,1.5L124.5,5.3z"/>
		<path class="st0" d="M130.9,17.1V0.4h11.5v3.3h-8.2v2.9h4.8v3.3h-4.8v4h8.6v3.3H130.9z"/>
		<path class="st0" d="M159,8.2c-0.3,0.7-0.7,1.3-1.3,1.7c-0.5,0.4-1.2,0.8-1.9,1c-0.7,0.2-1.5,0.3-2.4,0.3h-3.7v5.9h-3.3V0.4h7.3    c0.8,0,1.5,0.1,2.2,0.3c0.7,0.2,1.3,0.5,1.8,1c0.5,0.4,0.9,1,1.2,1.7c0.3,0.7,0.5,1.4,0.5,2.3C159.4,6.7,159.3,7.5,159,8.2z     M155.3,4.2c-0.4-0.3-1-0.5-1.8-0.5h-3.8v4.2h3.9c1.6,0,2.4-0.7,2.4-2.1C156,5.1,155.8,4.5,155.3,4.2z"/>
		<path class="st0" d="M172.7,17.1v-7h-6.9v7h-3.3V0.4h3.3v6.4h6.9V0.4h3.3v16.7H172.7z"/>
		<path class="st0" d="M199.1,14.2c-0.3,0.6-0.7,1.2-1.2,1.7s-1.2,0.8-2,1.1c-0.8,0.3-1.8,0.4-2.9,0.4c-1.4,0-2.7-0.3-3.8-0.8    c-1.1-0.5-2-1.3-2.7-2.2l2.4-2.1c0.6,0.7,1.2,1.2,2,1.5c0.7,0.3,1.5,0.4,2.3,0.4c1,0,1.7-0.1,2.2-0.4c0.5-0.3,0.7-0.7,0.7-1.4    c0-0.3,0-0.5-0.1-0.7c-0.1-0.2-0.3-0.4-0.5-0.6c-0.3-0.2-0.6-0.3-1.1-0.5c-0.5-0.2-1.1-0.3-1.9-0.5c-0.8-0.2-1.5-0.4-2.1-0.6    c-0.6-0.2-1.2-0.5-1.7-0.9c-0.5-0.4-0.8-0.8-1.1-1.4c-0.3-0.6-0.4-1.2-0.4-2.1c0-0.8,0.2-1.4,0.5-2s0.7-1.1,1.3-1.5    c0.5-0.4,1.2-0.7,1.9-1c0.7-0.2,1.5-0.3,2.3-0.3c1.3,0,2.4,0.2,3.4,0.7c1,0.5,1.9,1.1,2.7,1.9l-2.4,2.3c-0.5-0.6-1.1-1-1.7-1.3    c-0.6-0.3-1.3-0.4-2.1-0.4c-0.4,0-0.8,0-1.1,0.1c-0.3,0.1-0.5,0.2-0.7,0.3c-0.2,0.1-0.3,0.3-0.4,0.5c-0.1,0.2-0.1,0.4-0.1,0.5    c0,0.3,0.1,0.5,0.2,0.7c0.1,0.2,0.3,0.3,0.5,0.5c0.3,0.1,0.6,0.3,1,0.4c0.4,0.1,1,0.3,1.6,0.4c0.7,0.2,1.3,0.3,2,0.6    s1.3,0.5,1.8,0.9c0.5,0.4,1,0.9,1.3,1.4c0.3,0.6,0.5,1.3,0.5,2.2C199.4,12.9,199.3,13.6,199.1,14.2z"/>
		<path class="st0" d="M209.4,3.7v13.4h-3.3V3.7h-4.8V0.4h12.9v3.3H209.4z"/>
		<path class="st0" d="M229.8,12.4c-0.4,1.1-0.9,2-1.5,2.7c-0.7,0.7-1.4,1.3-2.3,1.7c-0.9,0.4-1.9,0.6-3,0.6c-1.1,0-2.1-0.2-3-0.6    c-0.9-0.4-1.7-1-2.3-1.7c-0.6-0.7-1.1-1.6-1.5-2.7c-0.4-1.1-0.5-2.3-0.5-3.6c0-1.3,0.2-2.6,0.5-3.6c0.4-1.1,0.9-2,1.5-2.7    c0.7-0.7,1.4-1.3,2.3-1.7c0.9-0.4,1.9-0.6,3-0.6c1.1,0,2.1,0.2,3,0.6c0.9,0.4,1.7,1,2.3,1.7c0.6,0.7,1.1,1.6,1.5,2.7    s0.5,2.3,0.5,3.6C230.3,10.1,230.1,11.3,229.8,12.4z M225.8,4.9c-0.7-0.9-1.7-1.4-2.9-1.4c-1.2,0-2.1,0.5-2.8,1.4    c-0.7,0.9-1.1,2.2-1.1,3.9c0,1.7,0.4,3,1.1,3.9c0.7,0.9,1.7,1.4,2.9,1.4c1.2,0,2.1-0.5,2.8-1.4c0.7-0.9,1.1-2.2,1.1-3.9    C226.9,7.1,226.5,5.8,225.8,4.9z"/>
		<path class="st0" d="M243.3,17.1l-3-6H237v6h-3.3V0.4h7.8c0.8,0,1.5,0.1,2.2,0.3s1.3,0.5,1.8,1c0.5,0.4,0.9,1,1.2,1.7    c0.3,0.7,0.5,1.4,0.5,2.3c0,1.3-0.3,2.3-0.8,3.1c-0.5,0.8-1.3,1.4-2.4,1.8l3.2,6.5H243.3z M243.1,4.2c-0.4-0.3-1-0.5-1.8-0.5H237    V8h4.4c1.6,0,2.4-0.7,2.4-2.2C243.7,5.1,243.5,4.5,243.1,4.2z"/>
		<path class="st0" d="M261.4,17.1l-1.3-3.7H254l-1.3,3.7h-3.6l6.4-16.7h3.2l6.3,16.7H261.4z M257.9,7.2c-0.2-0.5-0.3-1-0.5-1.4    c-0.2-0.5-0.3-0.8-0.3-1.2c-0.1,0.3-0.2,0.7-0.3,1.2c-0.2,0.5-0.3,0.9-0.5,1.4l-1.1,3h3.8L257.9,7.2z"/>
		<path class="st0" d="M280.1,13.5c-0.3,0.8-0.8,1.5-1.4,2.1c-0.6,0.6-1.3,1-2.1,1.3c-0.8,0.3-1.7,0.4-2.7,0.4c-1.1,0-2.1-0.2-3-0.6    c-0.9-0.4-1.7-1-2.3-1.7c-0.6-0.7-1.1-1.6-1.5-2.7c-0.3-1.1-0.5-2.2-0.5-3.6c0-1.3,0.2-2.4,0.5-3.5c0.4-1.1,0.9-2,1.5-2.7    c0.7-0.8,1.4-1.3,2.3-1.8s1.9-0.6,3-0.6c0.9,0,1.6,0.1,2.3,0.3c0.7,0.2,1.2,0.5,1.7,0.8c0.5,0.4,0.9,0.8,1.3,1.3    c0.4,0.5,0.7,1.1,1,1.7l-3.2,1.3c-0.2-0.3-0.3-0.6-0.5-0.9c-0.2-0.3-0.4-0.5-0.6-0.7c-0.2-0.2-0.5-0.3-0.9-0.5    c-0.3-0.1-0.7-0.2-1.2-0.2c-0.6,0-1.2,0.1-1.7,0.4c-0.5,0.3-0.9,0.6-1.2,1.1c-0.3,0.5-0.6,1-0.8,1.7c-0.2,0.6-0.3,1.4-0.3,2.1    c0,0.8,0.1,1.5,0.3,2.1c0.2,0.7,0.4,1.2,0.8,1.7c0.3,0.5,0.8,0.8,1.2,1.1c0.5,0.3,1,0.4,1.7,0.4c0.6,0,1.1-0.1,1.5-0.2    c0.4-0.1,0.7-0.3,1-0.5c0.2-0.2,0.4-0.5,0.6-0.8c0.1-0.3,0.2-0.6,0.3-1h-2.6V8.5h6v2.2C280.6,11.7,280.5,12.7,280.1,13.5z"/>
		<path class="st0" d="M284.1,17.1V0.4h11.5v3.3h-8.2v2.9h4.8v3.3h-4.8v4h8.6v3.3H284.1z"/>
		<path class="st0" d="M319.3,12.5c-0.5,1.1-1.1,1.9-1.9,2.6c-0.8,0.7-1.7,1.2-2.7,1.5c-1,0.3-2.1,0.5-3.1,0.5h-5V0.4h5.2    c1.2,0,2.3,0.1,3.3,0.4c1,0.3,1.9,0.8,2.6,1.4c0.7,0.7,1.3,1.5,1.7,2.6c0.4,1.1,0.6,2.3,0.6,3.9C320,10.2,319.8,11.5,319.3,12.5z     M315.4,5c-0.8-0.8-2.1-1.3-3.8-1.3h-1.8v10.1h1.6c0.9,0,1.6-0.1,2.3-0.4c0.6-0.2,1.2-0.6,1.6-1c0.4-0.4,0.7-1,0.9-1.6    c0.2-0.6,0.3-1.3,0.3-2.1C316.6,7.1,316.2,5.8,315.4,5z"/>
		<path class="st0" d="M333.6,17.1l-1.3-3.7h-6.1l-1.3,3.7h-3.6l6.4-16.7h3.2l6.3,16.7H333.6z M330.1,7.2c-0.2-0.5-0.3-1-0.5-1.4    c-0.2-0.5-0.3-0.8-0.3-1.2c-0.1,0.3-0.2,0.7-0.3,1.2c-0.2,0.5-0.3,0.9-0.5,1.4l-1.1,3h3.8L330.1,7.2z"/>
		<path class="st0" d="M351.6,14.2c-0.3,0.6-0.7,1.2-1.2,1.7c-0.5,0.5-1.2,0.8-2,1.1c-0.8,0.3-1.8,0.4-2.9,0.4    c-1.4,0-2.7-0.3-3.8-0.8c-1.1-0.5-2-1.3-2.7-2.2l2.4-2.1c0.6,0.7,1.2,1.2,2,1.5c0.7,0.3,1.5,0.4,2.3,0.4c1,0,1.7-0.1,2.2-0.4    c0.5-0.3,0.7-0.7,0.7-1.4c0-0.3,0-0.5-0.1-0.7c-0.1-0.2-0.3-0.4-0.5-0.6c-0.3-0.2-0.6-0.3-1.1-0.5c-0.5-0.2-1.1-0.3-1.9-0.5    c-0.8-0.2-1.5-0.4-2.1-0.6c-0.6-0.2-1.2-0.5-1.7-0.9c-0.5-0.4-0.8-0.8-1.1-1.4c-0.3-0.6-0.4-1.2-0.4-2.1c0-0.8,0.2-1.4,0.5-2    c0.3-0.6,0.7-1.1,1.3-1.5c0.5-0.4,1.2-0.7,1.9-1c0.7-0.2,1.5-0.3,2.3-0.3c1.3,0,2.4,0.2,3.4,0.7s1.9,1.1,2.7,1.9l-2.4,2.3    c-0.5-0.6-1.1-1-1.7-1.3c-0.6-0.3-1.3-0.4-2.1-0.4c-0.4,0-0.8,0-1.1,0.1c-0.3,0.1-0.5,0.2-0.7,0.3c-0.2,0.1-0.3,0.3-0.4,0.5    c-0.1,0.2-0.1,0.4-0.1,0.5c0,0.3,0.1,0.5,0.2,0.7c0.1,0.2,0.3,0.3,0.5,0.5c0.3,0.1,0.6,0.3,1,0.4c0.4,0.1,1,0.3,1.6,0.4    c0.7,0.2,1.3,0.3,2,0.6c0.7,0.2,1.3,0.5,1.8,0.9c0.5,0.4,1,0.9,1.3,1.4c0.3,0.6,0.5,1.3,0.5,2.2C352,12.9,351.9,13.6,351.6,14.2z"/>
		<path class="st0" d="M365.7,17.1v-7h-6.9v7h-3.3V0.4h3.3v6.4h6.9V0.4h3.3v16.7H365.7z"/>
		<path class="st0" d="M386.3,14c-0.3,0.7-0.7,1.2-1.2,1.7c-0.5,0.5-1.1,0.8-1.9,1c-0.7,0.2-1.5,0.3-2.4,0.3h-7.6V0.4h7.6    c1.6,0,2.9,0.4,3.9,1.1c1,0.8,1.4,1.8,1.4,3.3c0,0.7-0.2,1.3-0.5,1.9c-0.3,0.6-0.7,1-1.3,1.3c0.7,0.3,1.2,0.8,1.7,1.4    c0.4,0.6,0.7,1.4,0.7,2.3C386.8,12.6,386.6,13.4,386.3,14z M382.3,3.9c-0.3-0.3-0.8-0.4-1.6-0.4h-4.2v3.1h4.4    c0.7,0,1.2-0.1,1.5-0.4c0.3-0.3,0.4-0.7,0.4-1.1C382.8,4.6,382.7,4.2,382.3,3.9z M381,9.6h-4.4v4.3h4.4c0.8,0,1.4-0.2,1.8-0.6    c0.4-0.4,0.6-0.9,0.6-1.6C383.3,10.3,382.5,9.6,381,9.6z"/>
		<path class="st0" d="M403.2,12.4c-0.4,1.1-0.9,2-1.5,2.7c-0.7,0.7-1.4,1.3-2.3,1.7c-0.9,0.4-1.9,0.6-3,0.6c-1.1,0-2.1-0.2-3-0.6    c-0.9-0.4-1.7-1-2.3-1.7c-0.6-0.7-1.1-1.6-1.5-2.7c-0.4-1.1-0.5-2.3-0.5-3.6c0-1.3,0.2-2.6,0.5-3.6c0.4-1.1,0.9-2,1.5-2.7    c0.6-0.7,1.4-1.3,2.3-1.7c0.9-0.4,1.9-0.6,3-0.6c1.1,0,2.1,0.2,3,0.6s1.7,1,2.3,1.7c0.6,0.7,1.1,1.6,1.5,2.7    c0.4,1.1,0.5,2.3,0.5,3.6C403.7,10.1,403.6,11.3,403.2,12.4z M399.2,4.9c-0.7-0.9-1.7-1.4-2.9-1.4s-2.1,0.5-2.8,1.4    c-0.7,0.9-1.1,2.2-1.1,3.9c0,1.7,0.4,3,1.1,3.9c0.7,0.9,1.7,1.4,2.9,1.4s2.1-0.5,2.8-1.4s1.1-2.2,1.1-3.9    C400.3,7.1,400,5.8,399.2,4.9z"/>
		<path class="st0" d="M417.6,17.1l-1.3-3.7h-6.1l-1.3,3.7h-3.6l6.4-16.7h3.2l6.3,16.7H417.6z M414.1,7.2c-0.2-0.5-0.3-1-0.5-1.4    c-0.2-0.5-0.3-0.8-0.3-1.2c-0.1,0.3-0.2,0.7-0.3,1.2c-0.2,0.5-0.3,0.9-0.5,1.4l-1.1,3h3.8L414.1,7.2z"/>
		<path class="st0" d="M434,17.1l-3-6h-3.4v6h-3.3V0.4h7.8c0.8,0,1.5,0.1,2.2,0.3s1.3,0.5,1.8,1s0.9,1,1.2,1.7    c0.3,0.7,0.5,1.4,0.5,2.3c0,1.3-0.3,2.3-0.8,3.1c-0.5,0.8-1.3,1.4-2.4,1.8l3.2,6.5H434z M433.8,4.2c-0.4-0.3-1-0.5-1.8-0.5h-4.4V8    h4.4c1.6,0,2.4-0.7,2.4-2.2C434.4,5.1,434.2,4.5,433.8,4.2z"/>
		<path class="st0" d="M454.1,12.5c-0.5,1.1-1.1,1.9-1.9,2.6c-0.8,0.7-1.7,1.2-2.7,1.5c-1,0.3-2.1,0.5-3.1,0.5h-5V0.4h5.2    c1.2,0,2.3,0.1,3.3,0.4c1,0.3,1.9,0.8,2.6,1.4c0.7,0.7,1.3,1.5,1.7,2.6c0.4,1.1,0.6,2.3,0.6,3.9C454.8,10.2,454.6,11.5,454.1,12.5    z M450.2,5c-0.8-0.8-2.1-1.3-3.8-1.3h-1.8v10.1h1.6c0.9,0,1.6-0.1,2.3-0.4c0.6-0.2,1.2-0.6,1.6-1c0.4-0.4,0.7-1,0.9-1.6    c0.2-0.6,0.3-1.3,0.3-2.1C451.4,7.1,451,5.8,450.2,5z"/>
	</g>
</g>
</svg>