<?xml version="1.0" encoding="utf-8"?>
<!-- Generator: Adobe Illustrator 22.0.0, SVG Export Plug-In . SVG Version: 6.00 Build 0)  -->
<svg version="1.1" id="Layer_1" xmlns="http://www.w3.org/2000/svg" xmlns:xlink="http://www.w3.org/1999/xlink" x="0px" y="0px"
	 viewBox="0 0 291.3 12" style="enable-background:new 0 0 291.3 12;" xml:space="preserve">
<style type="text/css">
	.st0{fill:#FFFFFF;}
</style>
<g>
	<g>
		<g>
			<path class="st0" d="M6.2,11.4L4.5,7.9H3.3v3.5H0.5V0.9h4.7c0.6,0,1.2,0.1,1.7,0.2c0.5,0.1,0.9,0.3,1.3,0.6C8.5,2,8.8,2.3,9,2.8
				c0.2,0.4,0.3,1,0.3,1.6c0,0.8-0.2,1.4-0.5,1.9C8.4,6.8,7.9,7.2,7.4,7.4l2.1,4H6.2z M6.1,3.6c-0.2-0.2-0.5-0.3-1-0.3H3.3v2.3H5
				c0.5,0,0.8-0.1,1-0.3c0.2-0.2,0.3-0.5,0.3-0.9C6.4,4.1,6.3,3.8,6.1,3.6z"/>
		</g>
		<g>
			<path class="st0" d="M11.2,11.4V0.9h8v2.4h-5.2v1.4h3.1v2.4h-3.1V9h5.3v2.4H11.2z"/>
		</g>
		<g>
			<path class="st0" d="M29.9,8.6c-0.2,0.7-0.6,1.2-1.1,1.6c-0.5,0.4-1.1,0.7-1.8,0.9c-0.7,0.2-1.5,0.3-2.5,0.3h-3.4V0.9h3.7
				c0.8,0,1.6,0.1,2.2,0.3c0.7,0.2,1.2,0.5,1.7,0.9c0.5,0.4,0.8,0.9,1.1,1.6c0.3,0.7,0.4,1.5,0.4,2.5C30.2,7.1,30.1,7.9,29.9,8.6z
				 M27.1,4.9c-0.1-0.4-0.2-0.6-0.4-0.9c-0.2-0.2-0.4-0.4-0.7-0.5c-0.3-0.1-0.7-0.2-1.1-0.2h-0.7v5.5h0.6c0.5,0,0.8,0,1.2-0.1
				c0.3-0.1,0.6-0.3,0.8-0.5c0.2-0.2,0.4-0.5,0.4-0.9c0.1-0.4,0.1-0.8,0.1-1.3C27.3,5.7,27.2,5.3,27.1,4.9z"/>
		</g>
		<g>
			<path class="st0" d="M42.6,11.4V7.3h-3.3v4.1h-3V0.9h3v3.8h3.3V0.9h3v10.5H42.6z"/>
		</g>
		<g>
			<path class="st0" d="M54.4,11.4l-0.6-1.8h-3.1l-0.6,1.8H47l3.8-10.5h2.9l3.8,10.5H54.4z M53,6.6c-0.1-0.3-0.2-0.6-0.2-0.9
				c-0.1-0.3-0.1-0.5-0.2-0.7c-0.1-0.2-0.1-0.4-0.1-0.5c0-0.2-0.1-0.3-0.1-0.5c0,0.2-0.1,0.4-0.1,0.5c0,0.2-0.1,0.4-0.1,0.6
				c-0.1,0.2-0.1,0.4-0.2,0.7c-0.1,0.2-0.1,0.5-0.2,0.9l-0.2,0.7h1.7L53,6.6z"/>
		</g>
		<g>
			<path class="st0" d="M63.1,3.5v8h-2.9v-8h-2.9V0.9H66v2.5H63.1z"/>
		</g>
	</g>
	<g>
		<path class="st0" d="M69.4,6.6c-0.1,0.1-0.1,0.2-0.2,0.3C69.1,7,69,7.1,68.9,7.2c-0.1,0.1-0.3,0.1-0.4,0.1c-0.1,0-0.3,0-0.4-0.1
			c-0.1-0.1-0.2-0.1-0.3-0.2c-0.1-0.1-0.2-0.2-0.2-0.3c-0.1-0.1-0.1-0.3-0.1-0.4c0-0.1,0-0.3,0.1-0.4c0.1-0.1,0.1-0.2,0.2-0.3
			c0.1-0.1,0.2-0.2,0.3-0.2c0.1-0.1,0.3-0.1,0.4-0.1c0.2,0,0.3,0,0.4,0.1c0.1,0.1,0.2,0.1,0.3,0.2c0.1,0.1,0.2,0.2,0.2,0.3
			c0.1,0.1,0.1,0.3,0.1,0.4C69.5,6.3,69.5,6.5,69.4,6.6z M69.3,5.8c0-0.1-0.1-0.2-0.2-0.3c-0.1-0.1-0.2-0.1-0.3-0.2
			c-0.1,0-0.2-0.1-0.3-0.1c-0.1,0-0.2,0-0.4,0.1c-0.1,0-0.2,0.1-0.3,0.2c-0.1,0.1-0.1,0.2-0.2,0.3c0,0.1-0.1,0.2-0.1,0.3
			c0,0.1,0,0.2,0.1,0.3c0,0.1,0.1,0.2,0.2,0.3C67.9,6.9,68,7,68.1,7c0.1,0,0.2,0.1,0.4,0.1c0.1,0,0.2,0,0.3-0.1
			c0.1,0,0.2-0.1,0.3-0.2c0.1-0.1,0.1-0.2,0.2-0.3c0-0.1,0.1-0.2,0.1-0.3C69.3,6.1,69.3,5.9,69.3,5.8z M68.9,6.2
			c0,0.1-0.1,0.1-0.2,0.1l0.2,0.5h-0.2l-0.2-0.4h-0.2v0.4H68V5.6h0.5c0,0,0.1,0,0.1,0c0,0,0.1,0,0.1,0.1c0,0,0.1,0.1,0.1,0.1
			c0,0,0,0.1,0,0.2C68.9,6,68.9,6.1,68.9,6.2z M68.7,5.8c0,0-0.1,0-0.1,0h-0.3v0.3h0.3c0.1,0,0.1,0,0.1,0c0,0,0.1-0.1,0.1-0.1
			C68.7,5.9,68.7,5.8,68.7,5.8z"/>
	</g>
	<g>
		<path class="st0" d="M79.2,4c-0.2-0.4-0.4-0.6-0.7-0.8c-0.3-0.2-0.7-0.3-1.2-0.3c-0.4,0-0.7,0.1-1.1,0.2s-0.6,0.4-0.8,0.7
			S75,4.4,74.9,4.8c-0.1,0.4-0.2,0.9-0.2,1.4c0,0.5,0.1,0.9,0.2,1.3c0.1,0.4,0.3,0.8,0.5,1.1c0.2,0.3,0.5,0.5,0.8,0.7
			c0.3,0.2,0.7,0.3,1.1,0.3c0.5,0,0.9-0.1,1.2-0.3c0.3-0.2,0.6-0.6,0.9-1l1.8,1.1c-0.4,0.8-0.9,1.3-1.5,1.8s-1.4,0.6-2.4,0.6
			c-0.7,0-1.3-0.1-1.9-0.4c-0.6-0.3-1.1-0.6-1.5-1.1c-0.4-0.5-0.7-1-0.9-1.7c-0.2-0.7-0.3-1.4-0.3-2.3c0-0.8,0.1-1.5,0.3-2.2
			c0.2-0.7,0.6-1.2,1-1.7c0.4-0.5,0.9-0.9,1.5-1.1s1.2-0.4,1.9-0.4c0.5,0,0.9,0.1,1.3,0.2C79,1,79.4,1.2,79.7,1.4
			c0.3,0.2,0.6,0.5,0.8,0.7s0.4,0.6,0.6,0.9L79.2,4z"/>
		<path class="st0" d="M83.3,11.5V0.9h7.3V3h-5.2v1.8h3v2.1h-3v2.6h5.5v2.1H83.3z"/>
		<path class="st0" d="M101.1,5.8c-0.2,0.4-0.5,0.8-0.8,1.1c-0.3,0.3-0.8,0.5-1.2,0.6c-0.5,0.1-1,0.2-1.5,0.2h-2.3v3.8h-2.1V0.9h4.6
			c0.5,0,1,0.1,1.4,0.2s0.8,0.3,1.2,0.6c0.3,0.3,0.6,0.6,0.8,1.1s0.3,0.9,0.3,1.5C101.4,4.9,101.3,5.4,101.1,5.8z M98.8,3.3
			C98.5,3.1,98.1,3,97.7,3h-2.4v2.7h2.5c1,0,1.5-0.5,1.5-1.4C99.2,3.8,99.1,3.5,98.8,3.3z"/>
		<path class="st0" d="M109.9,11.5V7h-4.4v4.5h-2.1V0.9h2.1V5h4.4V0.9h2.1v10.6H109.9z"/>
		<path class="st0" d="M126.6,9.7c-0.2,0.4-0.4,0.8-0.8,1.1s-0.8,0.5-1.3,0.7c-0.5,0.2-1.1,0.2-1.9,0.2c-0.9,0-1.7-0.2-2.4-0.5
			s-1.3-0.8-1.7-1.4l1.5-1.4c0.4,0.4,0.8,0.7,1.2,0.9c0.5,0.2,0.9,0.3,1.5,0.3c0.6,0,1.1-0.1,1.4-0.3c0.3-0.2,0.4-0.5,0.4-0.9
			c0-0.2,0-0.3-0.1-0.4c-0.1-0.1-0.2-0.2-0.3-0.4c-0.2-0.1-0.4-0.2-0.7-0.3c-0.3-0.1-0.7-0.2-1.2-0.3c-0.5-0.1-0.9-0.2-1.3-0.4
			c-0.4-0.2-0.8-0.3-1.1-0.6s-0.5-0.5-0.7-0.9c-0.2-0.4-0.2-0.8-0.2-1.3c0-0.5,0.1-0.9,0.3-1.3s0.5-0.7,0.8-1
			c0.3-0.3,0.7-0.5,1.2-0.6c0.5-0.1,1-0.2,1.5-0.2c0.8,0,1.6,0.1,2.2,0.4c0.6,0.3,1.2,0.7,1.7,1.2l-1.5,1.5
			c-0.3-0.4-0.7-0.6-1.1-0.8c-0.4-0.2-0.8-0.3-1.3-0.3c-0.3,0-0.5,0-0.7,0.1c-0.2,0.1-0.3,0.1-0.5,0.2s-0.2,0.2-0.3,0.3
			c-0.1,0.1-0.1,0.2-0.1,0.3c0,0.2,0,0.3,0.1,0.4c0.1,0.1,0.2,0.2,0.3,0.3c0.2,0.1,0.4,0.2,0.7,0.3s0.6,0.2,1,0.3
			c0.4,0.1,0.8,0.2,1.3,0.4s0.8,0.3,1.1,0.6s0.6,0.5,0.8,0.9c0.2,0.4,0.3,0.8,0.3,1.4C126.9,8.8,126.8,9.2,126.6,9.7z"/>
		<path class="st0" d="M133.2,3v8.5h-2.1V3h-3V0.9h8.2V3H133.2z"/>
		<path class="st0" d="M146.2,8.5c-0.2,0.7-0.5,1.2-1,1.7c-0.4,0.5-0.9,0.8-1.5,1.1c-0.6,0.3-1.2,0.4-1.9,0.4
			c-0.7,0-1.3-0.1-1.9-0.4c-0.6-0.2-1.1-0.6-1.5-1.1c-0.4-0.5-0.7-1-1-1.7c-0.2-0.7-0.3-1.4-0.3-2.3c0-0.9,0.1-1.6,0.3-2.3
			c0.2-0.7,0.5-1.2,1-1.7c0.4-0.5,0.9-0.8,1.5-1.1c0.6-0.3,1.2-0.4,1.9-0.4c0.7,0,1.3,0.1,1.9,0.4c0.6,0.2,1.1,0.6,1.5,1.1
			c0.4,0.5,0.7,1,1,1.7s0.3,1.4,0.3,2.3C146.5,7,146.4,7.8,146.2,8.5z M143.7,3.7c-0.5-0.6-1.1-0.9-1.8-0.9c-0.7,0-1.3,0.3-1.8,0.9
			c-0.4,0.6-0.7,1.4-0.7,2.5c0,1.1,0.2,1.9,0.7,2.5s1.1,0.9,1.8,0.9s1.3-0.3,1.8-0.9s0.7-1.4,0.7-2.5C144.4,5.1,144.1,4.3,143.7,3.7
			z"/>
		<path class="st0" d="M154.8,11.5l-1.9-3.8h-2.1v3.8h-2.1V0.9h4.9c0.5,0,1,0.1,1.4,0.2s0.8,0.3,1.2,0.6c0.3,0.3,0.6,0.6,0.8,1.1
			c0.2,0.4,0.3,0.9,0.3,1.5c0,0.8-0.2,1.5-0.5,2c-0.3,0.5-0.8,0.9-1.5,1.2l2,4.1H154.8z M154.7,3.3C154.4,3.1,154,3,153.6,3h-2.8
			v2.7h2.8c1,0,1.5-0.5,1.5-1.4C155.1,3.8,154.9,3.5,154.7,3.3z"/>
		<path class="st0" d="M166.3,11.5l-0.8-2.4h-3.9l-0.8,2.4h-2.3l4.1-10.6h2.1l4,10.6H166.3z M164.1,5.2c-0.1-0.3-0.2-0.6-0.3-0.9
			c-0.1-0.3-0.2-0.5-0.2-0.7c-0.1,0.2-0.1,0.4-0.2,0.7c-0.1,0.3-0.2,0.6-0.3,0.9l-0.7,1.9h2.4L164.1,5.2z"/>
		<path class="st0" d="M178.3,9.2c-0.2,0.5-0.5,1-0.9,1.3c-0.4,0.4-0.8,0.6-1.3,0.8c-0.5,0.2-1.1,0.3-1.7,0.3
			c-0.7,0-1.3-0.1-1.9-0.4c-0.6-0.3-1.1-0.6-1.5-1.1c-0.4-0.5-0.7-1-0.9-1.7c-0.2-0.7-0.3-1.4-0.3-2.3c0-0.8,0.1-1.5,0.3-2.2
			c0.2-0.7,0.6-1.2,1-1.7c0.4-0.5,0.9-0.9,1.5-1.1s1.2-0.4,1.9-0.4c0.5,0,1,0.1,1.4,0.2s0.8,0.3,1.1,0.5c0.3,0.2,0.6,0.5,0.8,0.8
			s0.4,0.7,0.6,1.1l-2,0.8c-0.1-0.2-0.2-0.4-0.3-0.5c-0.1-0.2-0.3-0.3-0.4-0.4c-0.2-0.1-0.3-0.2-0.6-0.3c-0.2-0.1-0.5-0.1-0.7-0.1
			c-0.4,0-0.7,0.1-1.1,0.2s-0.6,0.4-0.8,0.7s-0.4,0.7-0.5,1.1c-0.1,0.4-0.2,0.9-0.2,1.4c0,0.5,0.1,0.9,0.2,1.3
			c0.1,0.4,0.3,0.8,0.5,1.1c0.2,0.3,0.5,0.5,0.8,0.7c0.3,0.2,0.7,0.3,1.1,0.3c0.4,0,0.7,0,0.9-0.1c0.3-0.1,0.5-0.2,0.6-0.3
			c0.2-0.1,0.3-0.3,0.4-0.5c0.1-0.2,0.1-0.4,0.2-0.6h-1.7V6h3.8v1.4C178.6,8.1,178.5,8.7,178.3,9.2z"/>
		<path class="st0" d="M180.8,11.5V0.9h7.3V3h-5.2v1.8h3v2.1h-3v2.6h5.5v2.1H180.8z"/>
		<path class="st0" d="M203.2,8.6c-0.3,0.7-0.7,1.2-1.2,1.7c-0.5,0.4-1.1,0.7-1.7,0.9c-0.7,0.2-1.3,0.3-2,0.3H195V0.9h3.3
			c0.8,0,1.5,0.1,2.1,0.3c0.6,0.2,1.2,0.5,1.7,0.9c0.5,0.4,0.8,1,1.1,1.6s0.4,1.5,0.4,2.5C203.6,7.1,203.5,7.9,203.2,8.6z
			 M200.7,3.8c-0.5-0.5-1.3-0.8-2.4-0.8h-1.1v6.5h1c0.6,0,1-0.1,1.5-0.2s0.7-0.4,1-0.7c0.3-0.3,0.5-0.6,0.6-1
			c0.1-0.4,0.2-0.8,0.2-1.3C201.5,5.1,201.2,4.3,200.7,3.8z"/>
		<path class="st0" d="M212.3,11.5l-0.8-2.4h-3.9l-0.8,2.4h-2.3l4.1-10.6h2.1l4,10.6H212.3z M210.1,5.2c-0.1-0.3-0.2-0.6-0.3-0.9
			c-0.1-0.3-0.2-0.5-0.2-0.7c-0.1,0.2-0.1,0.4-0.2,0.7c-0.1,0.3-0.2,0.6-0.3,0.9l-0.7,1.9h2.4L210.1,5.2z"/>
		<path class="st0" d="M223.8,9.7c-0.2,0.4-0.4,0.8-0.8,1.1c-0.3,0.3-0.8,0.5-1.3,0.7c-0.5,0.2-1.1,0.2-1.9,0.2
			c-0.9,0-1.7-0.2-2.4-0.5c-0.7-0.3-1.3-0.8-1.7-1.4l1.5-1.4c0.4,0.4,0.8,0.7,1.2,0.9c0.5,0.2,0.9,0.3,1.5,0.3
			c0.6,0,1.1-0.1,1.4-0.3c0.3-0.2,0.4-0.5,0.4-0.9c0-0.2,0-0.3-0.1-0.4c-0.1-0.1-0.2-0.2-0.3-0.4c-0.2-0.1-0.4-0.2-0.7-0.3
			c-0.3-0.1-0.7-0.2-1.2-0.3c-0.5-0.1-0.9-0.2-1.3-0.4c-0.4-0.2-0.8-0.3-1.1-0.6s-0.5-0.5-0.7-0.9c-0.2-0.4-0.2-0.8-0.2-1.3
			c0-0.5,0.1-0.9,0.3-1.3c0.2-0.4,0.5-0.7,0.8-1c0.3-0.3,0.7-0.5,1.2-0.6c0.5-0.1,1-0.2,1.5-0.2c0.8,0,1.6,0.1,2.2,0.4
			s1.2,0.7,1.7,1.2l-1.5,1.5c-0.3-0.4-0.7-0.6-1.1-0.8c-0.4-0.2-0.8-0.3-1.3-0.3c-0.3,0-0.5,0-0.7,0.1c-0.2,0.1-0.3,0.1-0.5,0.2
			s-0.2,0.2-0.3,0.3c0,0.1-0.1,0.2-0.1,0.3c0,0.2,0,0.3,0.1,0.4c0.1,0.1,0.2,0.2,0.3,0.3c0.2,0.1,0.4,0.2,0.7,0.3
			c0.3,0.1,0.6,0.2,1,0.3c0.4,0.1,0.8,0.2,1.3,0.4c0.4,0.1,0.8,0.3,1.1,0.6c0.3,0.2,0.6,0.5,0.8,0.9s0.3,0.8,0.3,1.4
			C224,8.8,223.9,9.2,223.8,9.7z"/>
		<path class="st0" d="M232.7,11.5V7h-4.4v4.5h-2.1V0.9h2.1V5h4.4V0.9h2.1v10.6H232.7z"/>
		<path class="st0" d="M245.9,9.5c-0.2,0.4-0.4,0.8-0.8,1.1c-0.3,0.3-0.7,0.5-1.2,0.7c-0.5,0.1-1,0.2-1.5,0.2h-4.8V0.9h4.9
			c1,0,1.8,0.2,2.5,0.7c0.6,0.5,0.9,1.2,0.9,2.1c0,0.5-0.1,0.9-0.3,1.2c-0.2,0.4-0.5,0.6-0.8,0.8c0.4,0.2,0.8,0.5,1.1,0.9
			c0.3,0.4,0.4,0.9,0.4,1.5C246.1,8.6,246.1,9.1,245.9,9.5z M243.3,3.1c-0.2-0.2-0.5-0.3-1-0.3h-2.7v2h2.8c0.4,0,0.8-0.1,0.9-0.3
			c0.2-0.2,0.3-0.4,0.3-0.7C243.6,3.5,243.5,3.3,243.3,3.1z M242.5,6.7h-2.8v2.7h2.8c0.5,0,0.9-0.1,1.1-0.4c0.2-0.2,0.4-0.6,0.4-1
			C244,7.2,243.5,6.7,242.5,6.7z"/>
		<path class="st0" d="M256.6,8.5c-0.2,0.7-0.5,1.2-1,1.7c-0.4,0.5-0.9,0.8-1.5,1.1c-0.6,0.3-1.2,0.4-1.9,0.4
			c-0.7,0-1.3-0.1-1.9-0.4c-0.6-0.2-1.1-0.6-1.5-1.1c-0.4-0.5-0.7-1-1-1.7c-0.2-0.7-0.3-1.4-0.3-2.3c0-0.9,0.1-1.6,0.3-2.3
			c0.2-0.7,0.5-1.2,1-1.7c0.4-0.5,0.9-0.8,1.5-1.1c0.6-0.3,1.2-0.4,1.9-0.4c0.7,0,1.3,0.1,1.9,0.4s1.1,0.6,1.5,1.1
			c0.4,0.5,0.7,1,1,1.7c0.2,0.7,0.3,1.4,0.3,2.3C257,7,256.8,7.8,256.6,8.5z M254.1,3.7c-0.5-0.6-1.1-0.9-1.8-0.9s-1.3,0.3-1.8,0.9
			c-0.4,0.6-0.7,1.4-0.7,2.5c0,1.1,0.2,1.9,0.7,2.5c0.5,0.6,1.1,0.9,1.8,0.9s1.3-0.3,1.8-0.9s0.7-1.4,0.7-2.5
			C254.8,5.1,254.5,4.3,254.1,3.7z"/>
		<path class="st0" d="M265.8,11.5l-0.8-2.4h-3.9l-0.8,2.4H258L262,0.9h2.1l4,10.6H265.8z M263.5,5.2c-0.1-0.3-0.2-0.6-0.3-0.9
			c-0.1-0.3-0.2-0.5-0.2-0.7c-0.1,0.2-0.1,0.4-0.2,0.7c-0.1,0.3-0.2,0.6-0.3,0.9l-0.7,1.9h2.4L263.5,5.2z"/>
		<path class="st0" d="M276.2,11.5l-1.9-3.8h-2.1v3.8h-2.1V0.9h4.9c0.5,0,1,0.1,1.4,0.2s0.8,0.3,1.2,0.6s0.6,0.6,0.8,1.1
			c0.2,0.4,0.3,0.9,0.3,1.5c0,0.8-0.2,1.5-0.5,2c-0.3,0.5-0.8,0.9-1.5,1.2l2,4.1H276.2z M276.1,3.3C275.8,3.1,275.4,3,275,3h-2.8
			v2.7h2.8c1,0,1.5-0.5,1.5-1.4C276.5,3.8,276.3,3.5,276.1,3.3z"/>
		<path class="st0" d="M289,8.6c-0.3,0.7-0.7,1.2-1.2,1.7s-1.1,0.7-1.7,0.9s-1.3,0.3-2,0.3h-3.2V0.9h3.3c0.8,0,1.5,0.1,2.1,0.3
			c0.6,0.2,1.2,0.5,1.7,0.9c0.5,0.4,0.8,1,1.1,1.6s0.4,1.5,0.4,2.5C289.5,7.1,289.3,7.9,289,8.6z M286.6,3.8
			c-0.5-0.5-1.3-0.8-2.4-0.8H283v6.5h1c0.6,0,1-0.1,1.5-0.2c0.4-0.2,0.7-0.4,1-0.7c0.3-0.3,0.5-0.6,0.6-1c0.1-0.4,0.2-0.8,0.2-1.3
			C287.3,5.1,287,4.3,286.6,3.8z"/>
	</g>
</g>
</svg>
